<svg xmlns="http://www.w3.org/2000/svg" xmlns:xlink="http://www.w3.org/1999/xlink" viewBox="0 0 64.49 93.63"><defs><style>.cls-1{fill:url(#linear-gradient);}.cls-2{fill:url(#linear-gradient-2);}.cls-3{fill:url(#linear-gradient-3);}</style><linearGradient id="linear-gradient" x1="46.63" y1="48.21" x2="27.62" y2="102.05" gradientUnits="userSpaceOnUse"><stop offset="0" stop-color="#00628b"/><stop offset="0.03" stop-color="#006792"/><stop offset="0.19" stop-color="#007baf"/><stop offset="0.36" stop-color="#008bc6"/><stop offset="0.54" stop-color="#0096d6"/><stop offset="0.74" stop-color="#009de0"/><stop offset="1" stop-color="#009fe3"/></linearGradient><linearGradient id="linear-gradient-2" x1="8.35" y1="38.27" x2="8.33" y2="68.91" gradientUnits="userSpaceOnUse"><stop offset="0.47" stop-color="#00628b"/><stop offset="1" stop-color="#009fe3"/></linearGradient><linearGradient id="linear-gradient-3" x1="14.31" y1="9.48" x2="29.72" y2="35.33" gradientUnits="userSpaceOnUse"><stop offset="0.28" stop-color="#00628b"/><stop offset="1" stop-color="#009fe3"/></linearGradient></defs><g id="Layer_2" data-name="Layer 2"><g id="Layer_1-2" data-name="Layer 1"><path class="cls-1" d="M11.8,93.54V75l19.48.13c7.11.16,13-5.06,13.62-11.24.75-7.06-5.39-14.13-13.62-14.06l19.34-9.89C60.89,46.83,66.19,58.82,64,70c-2.72,14-16.67,24.65-32.73,23.5Z"/><rect class="cls-2" y="34.1" width="16.67" height="59.44"/><path class="cls-3" d="M0,0V16.05H31.72a9,9,0,0,1,0,18.05H0V50.05l33.48,0C46.63,49.51,57.19,39.28,58.14,27c1-13.48-9.72-26-24.17-27Z"/></g></g></svg>