<svg xmlns="http://www.w3.org/2000/svg" viewBox="0 0 30.86 27"><defs><style>.cls-1{fill:#005b97;}</style></defs><g id="Layer_2" data-name="Layer 2"><g id="Layer_1-2" data-name="Layer 1"><path class="cls-1" d="M0,1.93A2,2,0,0,1,.56.56,2,2,0,0,1,1.93,0h27a1.92,1.92,0,0,1,1.36.56,2,2,0,0,1,.57,1.37,1.95,1.95,0,0,1-1.93,1.93h-27A2,2,0,0,1,.56,3.29,1.92,1.92,0,0,1,0,1.93Z"/><path class="cls-1" d="M0,25.07a1.92,1.92,0,0,1,.56-1.36,2,2,0,0,1,1.37-.57h27a1.95,1.95,0,0,1,1.93,1.93,2,2,0,0,1-.57,1.37,1.92,1.92,0,0,1-1.36.56h-27a2,2,0,0,1-1.37-.56A2,2,0,0,1,0,25.07Z"/><path class="cls-1" d="M1.93,11.57a1.93,1.93,0,1,0,0,3.86H17.36a1.89,1.89,0,0,0,1.36-.57,1.91,1.91,0,0,0,0-2.72,1.89,1.89,0,0,0-1.36-.57Z"/></g></g></svg>