<svg xmlns="http://www.w3.org/2000/svg" viewBox="0 0 36.27 44.33"><defs><style>.cls-1{fill:#005b97;}.cls-2{fill:#2daee5;}</style></defs><g id="Layer_2" data-name="Layer 2"><g id="Layer_1-2" data-name="Layer 1"><path class="cls-1" d="M3.74,0H17.6a3,3,0,0,1,2,.71l9.59,8.12a3,3,0,0,1,1.07,2.31v25.3c0,3.61,0,3.86-3.74,3.86H3.74C0,40.3,0,40.05,0,36.44V3.86C0,.25,0,0,3.74,0Zm6.33,22.16a2,2,0,0,0,0,4H24.18a2,2,0,0,0,0-4Zm0,8.06a2,2,0,0,0,0,4h6.05a2,2,0,0,0,0-4Z"/><path class="cls-2" d="M7.77,4H23.65a3,3,0,0,1,2,.72l9.6,8.11a3,3,0,0,1,1.07,2.31v25.3c0,3.61,0,3.86-3.74,3.86H7.77c-3.7,0-3.74-.25-3.74-3.86V7.89C4,4.28,4.07,4,7.77,4Zm2.31,18.14a2,2,0,1,0,0,4h14.1a2,2,0,1,0,0-4Zm0,8.06a2,2,0,1,0,0,4h6a2,2,0,1,0,0-4Z"/></g></g></svg>