<svg xmlns="http://www.w3.org/2000/svg" viewBox="0 0 36.27 36.27"><defs><style>.cls-1{fill:#2daee5;}.cls-2{fill:#005b97;fill-rule:evenodd;}</style></defs><g id="Layer_2" data-name="Layer 2"><g id="Layer_1-2" data-name="Layer 1"><path class="cls-1" d="M18.13,36.27A18.14,18.14,0,1,0,0,18.13,18.14,18.14,0,0,0,18.13,36.27Z"/><path class="cls-2" d="M17.6,36.26A18.13,18.13,0,0,1,0,18.13c0-.16,0-.33,0-.5,1.32.13,3.73.42,3.84,1.35.16,1.29,0,2.91,1.1,3.39s1.42-1.94,2.36-1.29,3.45,1.27,3.45,2.41-.47,2.91,0,3.24a13.08,13.08,0,0,1,2.36,2.9c0,.32.66,2,.46,2.59a8.8,8.8,0,0,1-1.79,2.87A17.58,17.58,0,0,0,17.6,36.26Zm-7-34.65A18.17,18.17,0,0,1,34.33,10c.06,1.57.05,2.92.4,3.4,1.77,2.48-4.31,4.18-3.38,7.92.4,1.65-4,1.13-5.13,2.67s-3.74.51-4.35.21-3,.69-2.77-1,1.64-1.78,3.18-2.47,3.75-3,2.66-3.29A10.88,10.88,0,0,1,18.06,11c-.31-.06-.23-3.5-1.56-3.6s-2.05.4-4,0S11,5.76,10.66,3A5.37,5.37,0,0,1,10.64,1.61ZM36.27,17.89v.24a18.14,18.14,0,0,1-18,18.14A18.41,18.41,0,0,0,36.27,17.89Z"/></g></g></svg>