<svg xmlns="http://www.w3.org/2000/svg" xmlns:xlink="http://www.w3.org/1999/xlink" viewBox="0 0 659 395.06"><defs><style>.cls-1{fill:#dd9588;}.cls-2{fill:#02a4d3;}.cls-3{fill:#015f7f;}.cls-4{fill:#f89c53;}.cls-5{fill:#465477;}.cls-6{fill:#f26f6f;}.cls-7{fill:#fab074;}.cls-8{fill:#544a89;}.cls-9{fill:#453c73;}.cls-10{fill:#403a65;opacity:0.4;}.cls-10,.cls-15,.cls-16{isolation:isolate;}.cls-11{fill:#4b4c61;}.cls-12,.cls-15,.cls-16{fill:#fff;}.cls-13{fill:#8fdd66;}.cls-14,.cls-28,.cls-29,.cls-34,.cls-39,.cls-40,.cls-42,.cls-43{fill:none;stroke-linecap:round;stroke-miterlimit:10;}.cls-14,.cls-42,.cls-43{stroke:#fff;}.cls-14{stroke-width:12.85px;}.cls-15{opacity:0.3;}.cls-16{opacity:0.55;}.cls-17{fill:#819ed2;}.cls-18{fill:#7894c5;}.cls-19{fill:#a0c8ea;}.cls-20{fill:#bad7f0;}.cls-21{fill:#6e82a8;}.cls-22{fill:#65779a;}.cls-23{fill:#7287af;}.cls-24{fill:#697ca0;}.cls-25{fill:#3abd9d;}.cls-26{fill:#ece9e7;}.cls-27{fill:#f6ca65;}.cls-28{stroke:#f26f6f;}.cls-28,.cls-29{stroke-width:6.12px;}.cls-29{stroke:#f28282;}.cls-30{fill:#ff9d9d;}.cls-31{fill:#fbad83;}.cls-32{fill:#f071a9;}.cls-33{fill:url(#linear-gradient);}.cls-34{stroke:#737e9a;stroke-width:7.42px;}.cls-35{fill:#86acd5;}.cls-36{fill:#737e9a;}.cls-37{fill:#9abde2;}.cls-38{fill:#d36396;}.cls-39{stroke:#9764a7;}.cls-39,.cls-40{stroke-width:0.53px;}.cls-40{stroke:#f8bbd6;}.cls-41{fill:#fcc197;}.cls-42{stroke-width:1.02px;}.cls-43{stroke-width:1.53px;}.cls-44{fill:url(#linear-gradient-2);}.cls-45{fill:#633b2c;}</style><linearGradient id="linear-gradient" x1="6.5" y1="132.33" x2="168.98" y2="38.53" gradientTransform="matrix(1, 0, 0, -1, 0, 395.4)" gradientUnits="userSpaceOnUse"><stop offset="0" stop-color="#00659c"/><stop offset="0.57" stop-color="#f1fafe"/><stop offset="1" stop-color="#5f84b2"/></linearGradient><linearGradient id="linear-gradient-2" x1="214.64" y1="312.1" x2="214.64" y2="227.03" gradientTransform="matrix(1, 0, 0, -1, 0, 395.4)" gradientUnits="userSpaceOnUse"><stop offset="0" stop-color="#cf8b4b"/><stop offset="1" stop-color="#703952"/></linearGradient></defs><g id="Layer_2" data-name="Layer 2"><g id="Layer_1-2" data-name="Layer 1"><path class="cls-1" d="M44.15,134.5a6.89,6.89,0,0,1,1.13-5.45l.17,2.17Z"/><path class="cls-2" d="M540.45,380.27c.52-.87,1-1.73,1.56-2.68,3.63-9.94,2.33-16.07.69-19.79-6.48-14.52-24.19-22.3-63.16-28.6-2.85-.44-20.65-6.05-27.65-23.08-4.58-11.06-2-22.12-.17-28.77,6.22-23.51,20.13-25.5,27.56-44.85,6.14-16,5.88-38.72-6.13-55.66-15-21.26-43.55-26.44-64.55-22.21-20.56,4.15-34.73,18.07-41.82,26.53a124.3,124.3,0,0,0-23-34.65c-28.95-30.85-73.27-45.45-113.54-39.92-45,6.22-72.92,35.95-86.92,50.9-78.54,83.91-58.66,212.58-54.43,237H659C629.1,390.21,582.19,385.45,540.45,380.27Z"/><path class="cls-3" d="M187.67,374.82c3.54,7.35,9.76,11.24,12.44,13A41.64,41.64,0,0,0,217,393.58a37.46,37.46,0,0,0,4.58.25c46.23,0,68.69.7,85.37.7,38.88,0,100.74-.18,182.31-.18,11.23-6.05,58.84-34.82,77.42-97.39,1.29-4.23,25.22-90.65-18.06-140.86-2.68-3.11-29.73-33.7-58.15-26.53-30,7.52-34.05,50.47-70.6,59.11-15.55,3.72-28.6-.78-33-2.33-36-12.79-36.38-51.25-68.09-61.79-16.41-5.44-37.93-.86-50.2,14.86-17.19,22-14.17,59.55,1,82.62,9.16,13.83,18.75,17.54,24.11,35.17,1.9,6.22,5.7,19.53-.18,33.79-8.29,20-29.2,26.53-32.49,27.05-38.7,6.22-68.95,15.55-74,33.53C182.92,365.06,187.67,374.82,187.67,374.82Z"/><path class="cls-4" d="M458.54,360.22c9.6-1.38,12.53-6.4,23.07-6.05,8.56.26,10.11,3.72,20.31,6.05,5.53,1.3,22.46,5.18,31.8-2.33,11-9,11.23-27.66,3.19-41.05-9.76-16.08-24.28-23.59-29.2-38.8-2.08-6.4-.78-8.82-1.21-18.15-1.47-32.67-16.94-68.53-28.69-68-4.32.17-7.26,5.18-11.32,12.18-5.61,9.51-5.61,16.34-9,35-2.77,14.95-4.06,22.47-7.18,30.42-4.49,11.67-7.86,13.57-14.25,25.41-9.59,17.54-20.31,37.16-13,50.81C429,356.59,446.1,362,458.54,360.22Z"/><path class="cls-5" d="M492.93,394.35s-14.69-32.75-11.83-64.29,6.22-25.23,1.72-53.23-2.07-48.91-2.07-48.91-9.94,38.28-3.63,60.4-9.59,31-8.47,65.42-.08,40.61-.08,40.61Z"/><path class="cls-5" d="M482.22,320.21l31.62-8.82L481.1,330.32Z"/><path class="cls-5" d="M479.19,306.64l-23.76-14.17L479.19,297v9.68Z"/><path class="cls-6" d="M554.62,346.74A40.79,40.79,0,1,0,513.84,306,40.79,40.79,0,0,0,554.62,346.74Z"/><path class="cls-5" d="M555.66,318l31.8-8.81-32.84,18.92Z"/><path class="cls-5" d="M554.62,306l-23.84-14.17,23.84,9.07V306Z"/><path class="cls-5" d="M555.4,283.31l-7.6,111h13.65Z"/><path class="cls-7" d="M207,378.71l-.86,4.93,13.91,4.58.86.43a1,1,0,0,1-.51,1.9l-13.14.87c-2.07.17-8.55.34-10.11-.7-1.72-1.12-1.38-1-1.64-2.5l.61-3.29.77-6.65Z"/><path class="cls-8" d="M196.22,383.46s-2.42,8.3,1.82,9.94c3.71,1.39,13.65,1,21.51.69,2.51-.08,7-.51,6.48-2.59-.6-2.33-12.1-5.27-12.1-5.27.52.17,2.34.78,2.94.95,1.47.52-.26,1.21-2.24,1.3C209.53,388.74,195.19,389.08,196.22,383.46Z"/><path class="cls-9" d="M228.1,208.21s2.16,31.54-6.48,86.51l-15.2,86.93-9.94-.43s-.95-68,5.27-89.62c-.6-15.29-5.53-27.91-8.21-41.48a25.31,25.31,0,0,1-5.61-10.88c-2-6.83-1.3-20.23,2.59-25.84C196.83,204,202.1,203.55,228.1,208.21Z"/><path class="cls-10" d="M188.36,218.32s5.27,8.39,10.8,9.68c5.88,1.47,12.61,64.9,12.61,64.9l4.5,26.53s-4-26.62-9.51-38.8c-2.16-4.84-7.94-19.27-12.7-29.47-2.07-2.76-3.89-4.23-5.27-8.81C186,233,187.58,225.58,188.36,218.32Z"/><path class="cls-7" d="M237.78,379.32l1,5.1,13.82,4.49.87.43a1,1,0,0,1-.52,1.9l-13.13.87c-2.08.17-8.56.34-10.11-.69-1.73-1.13-1.38-1-1.65-2.51l.61-3.28-.34-6.83Z"/><path class="cls-8" d="M228.62,384s-2.24,8.47,2,10.11c3.72,1.39,13.65,1,21.52.7,2.5-.09,7-.52,6.48-2.6-.61-2.33-12.1-5.27-12.1-5.27.6.17,2.33.78,2.94.95,1.47.52-.26,1.21-2.25,1.3C242.1,389.43,228.88,389.51,228.62,384Z"/><path class="cls-11" d="M442.13,394.44H270.7a14.09,14.09,0,0,1-14.08-14.09V62A14.09,14.09,0,0,1,270.7,47.91H442.13A14.09,14.09,0,0,1,456.21,62V380.35A14.2,14.2,0,0,1,442.13,394.44Z"/><path class="cls-12" d="M434.87,70.9h-157V232.84h157Z"/><path class="cls-13" d="M356.5,219.1a48,48,0,1,0-48-48A48,48,0,0,0,356.5,219.1Z"/><path class="cls-14" d="M336.63,173.82l18.92,12.27,20.74-33.62"/><path class="cls-15" d="M256.45,326.6V62a14.08,14.08,0,0,1,14.08-14.09H418.28Z"/><path class="cls-16" d="M434.7,249.17H277.87V273H434.7Z"/><path class="cls-8" d="M236.14,216s-3.71-5.19-20.82-6.74a82.18,82.18,0,0,1-11.32-2,20.49,20.49,0,0,0-5.79,4c-1.56,1.55-5.27,5.1-6.22,13.31a36.54,36.54,0,0,0,1.64,16.5c1.3,4.49,4.67,7.61,7.35,11,8.2,22.9,9.59,34.39,10.79,38.71,1.91,24.89,16.68,91.6,16.68,91.6h9.94s-2.68-85.38-2.68-91.51c0-13.48-1.9-37.51-1.3-54.45A163,163,0,0,0,236.14,216Z"/><path class="cls-16" d="M434.7,280.54H277.87v23.85H434.7Z"/><path class="cls-16" d="M434.7,312H277.87v23.85H434.7Z"/><path class="cls-17" d="M113.45,257.21H83v30.42h30.42Z"/><path class="cls-18" d="M86.4,287.54,86,282.7h23.24v4.84l2,.09v-9.16H83.55l1.13,9.07Z"/><path class="cls-19" d="M150.77,274.84H113.36v30.42h37.41Z"/><path class="cls-20" d="M136,278.73l-2.42,24H112.32v2.94h30.16v-3.8h8.29V298h-12l1.73-19.27Z"/><path class="cls-21" d="M152.93,305.26H108v30.42h44.93Z"/><path class="cls-22" d="M117.16,305.26v17.63H132.8l-1.29,13.56h3.71L137,319.34H119.15V305.26Z"/><path class="cls-20" d="M110,287.54H79.58V318H110Z"/><path class="cls-19" d="M112.32,287.54,91.24,315.11,86.4,287.54l-3.37.09,2.16,28.52h26.1Z"/><path class="cls-23" d="M108,318.05H70.16V334.9H108Z"/><path class="cls-24" d="M70.16,334.9c3.37,0,37.84-14.43,37.84-14.43V334.9Z"/><path class="cls-25" d="M434.7,347.52H383.46v22.2H434.7Z"/><path class="cls-2" d="M378.88,166.65H276.75a11,11,0,0,1-11-11V101.4a11,11,0,0,1,11-11h102a11,11,0,0,1,11,11v54.27A10.87,10.87,0,0,1,378.88,166.65Z"/><path class="cls-26" d="M343.63,124.39H274.5v13h69.13Z"/><path class="cls-26" d="M389.85,106.41H265.6v13H389.85Z"/><path class="cls-27" d="M381.64,347.52H330.41v22.2h51.23Z"/><path class="cls-6" d="M328.42,347.52H277.18v22.2h51.24Z"/><path class="cls-28" d="M320.21,38.06A34.91,34.91,0,1,1,390,37.89"/><path class="cls-29" d="M335.16,38.84a20.7,20.7,0,0,1,41.39-.09"/><path class="cls-30" d="M347.86,39.61a7.26,7.26,0,0,1,14.52,0Z"/><path class="cls-31" d="M278.22,106.93c-1-1-3.37,2.08-4.67,2.16h-.69c-.17,0-.69-.52-1.21-.52a4.75,4.75,0,0,0-.95.26c-.43,0-.95-.51-1.47-.51-.34,0-1,.51-1.29.51s-1.21-.34-1.82-.17c-.86.17-1,.52-1.81,1.21-3,2.51-2.94,6.4-4.15,7.86-2.85,3.81-12.61,8.91-22.38,15.65-4.58,3.11-19.09,11.32-19.09,11.32l-6.05,3.63s-13.48-26.1-16.68-5.45c0,0,.87,13.74,13.83,26.62,5.7,2.85,17.19-6.74,26.09-15.56l.09.09,1.29-1.38C243.4,146.42,248,141,248,141l-.09-.09c.69-.77,10.11-11.84,12.62-14.51a15.38,15.38,0,0,1,6.22-4.07,36.17,36.17,0,0,0,5.61-2.85,9.11,9.11,0,0,0,3.11-3.63c.7-1-.69-1-1.9-.6-.95.34-3.37,1.64-3.54,1.55a8.41,8.41,0,0,1,1.21-1.29,27.61,27.61,0,0,0,2.33-2.51c1.13-1.21,1.65-2.07,2.51-2.85C276.75,109.7,279.08,107.71,278.22,106.93Z"/><path class="cls-32" d="M243.05,165c.69,5,.52,7.95-3.63,12.62-2.33,2.59-1.38,8.38-1.9,12.53-.77,6.83-1.29,11.24-.86,17.37.09.78.17,11.32-.69,13.65-1.56,4.33-5.19,4-10.8,4.24-2.51.09-5.27.17-8.47.09-22.55-.35-28.86-5.53-28.86-5.53a37.26,37.26,0,0,1,4-10.63c3.54-6.4,6.13-13.31,6.3-18,1.21-28.43,3.29-44.68,8.12-50.9a17.64,17.64,0,0,1,11.32-7.6s13.05-1.64,22.21,5.7c6,4.75,7.69,7.09,7.69,7.09l-8.12,14.77,4.32.87C243.74,161.29,242.71,162.15,243.05,165Z"/><path class="cls-31" d="M247.46,145.65l23.07,21,30.93-.52a26.11,26.11,0,0,1,5.62-2.68,9.45,9.45,0,0,1,5.53.69c.08,2.16-3.54,1.9-3.54,1.9l3.19.26,7.52.35-3.8,2.42s-4.75,3.19-7,3.37c-1.56.17-7.26-.95-7.26-.95l-30.84,7a4.9,4.9,0,0,1-3.63-.61l-27.83-17.46Z"/><path class="cls-33" d="M172.46,278.12a4.54,4.54,0,0,0-3.71-1.9H47.18L43.89,262A6.29,6.29,0,0,0,37.67,257H11.23a2.16,2.16,0,1,0,0,4.32H37.67a2,2,0,0,1,2,1.64l3.63,15.9V279l9.07,39.84L57,339.31h.08l9.94,37.85a6.2,6.2,0,0,0,6,4.58h80.36a2.16,2.16,0,0,0,0-4.32H73A1.87,1.87,0,0,1,71.2,376l-9.59-36.81h91.32a4.78,4.78,0,0,0,4.58-3.46l15.73-53.49A4.5,4.5,0,0,0,172.46,278.12Zm-13.65,38H139.89l1.38-15.9h22.21Zm-23.24,0H114.23v-15.9H137ZM110,300.25v15.9H87.87l-1.38-15.9Zm-23.93-4.32-1.38-15.47H110v15.47Zm-2.51,20.22H56.34l-3.63-15.9H82.17Zm-26.26,4.32H84l1.3,14.43H60.66Zm30.93,0H110V334.9H89.51Zm26,0h21l-1.29,14.43h-19.7Zm0-24.54V280.46h24.53l-1.38,15.47ZM80.36,280.54,81.74,296H51.67l-3.54-15.47Zm73.09,54a.57.57,0,0,1-.52.35H138.16l1.3-14.43h18Zm15.64-53.49L164.68,296H141.62L143,280.54h25.75a.43.43,0,0,1,.34.18A.39.39,0,0,1,169.09,281.06Z"/><path class="cls-34" d="M153.45,379.58H73.1a4,4,0,0,1-3.89-3L58.84,337.06,41.56,261.62a3.23,3.23,0,0,0-3.11-2.51H12.36"/><path class="cls-35" d="M25.06,263.43H4.41a4.41,4.41,0,1,1,0-8.81H25.06Z"/><path class="cls-36" d="M82.69,394.35a6.57,6.57,0,1,0-6.57-6.56A6.56,6.56,0,0,0,82.69,394.35Z"/><path class="cls-36" d="M140.06,394.35a6.57,6.57,0,1,0-6.57-6.56A6.57,6.57,0,0,0,140.06,394.35Z"/><path class="cls-37" d="M82.69,391.85a4.07,4.07,0,1,0-4.06-4.06A4.06,4.06,0,0,0,82.69,391.85Z"/><path class="cls-37" d="M140.06,391.85a4.07,4.07,0,1,0-4.06-4.06A4.06,4.06,0,0,0,140.06,391.85Z"/><path class="cls-38" d="M239.94,178.66c-2.33,2.5-2.16,8.47-2.42,12.53-.34,6.74-.86,13.48-.86,13.48-.17,5.88-.09,13.74-.87,20.13-4.66.44-10.62.7-10.62.7v.08c0-1.47,3.11-11.66,4.15-30.85a79.12,79.12,0,0,1,10.1-34.22l4.32,2.51s-1.46.95-.69,3.63C244.35,171.05,244.09,174.08,239.94,178.66Z"/><path class="cls-39" d="M188.1,221.87s9.5,6.82,37.85,5.27l2.5,23.85,6.05,50.29,2.33,80.46"/><path class="cls-38" d="M192.77,144.61s.77,22.73,18,23.33c29.56,1,25.41-32.4,36.21-22.9,0,0-3-3.63-10.37-8.64,0,0-3.37,9.68-11,13.31C220.24,152.3,200.54,154.37,192.77,144.61Z"/><path class="cls-40" d="M238.47,140.46a33.47,33.47,0,0,1,7.87,5.88l-6.92,13.22"/><path class="cls-39" d="M196,229.38l3.8,11.58,4.15,2.08,5.27-2.08-.69-10.45Z"/><path class="cls-39" d="M188.88,228.61l1.73-.09.26,9.07-2.08.95-.95-2.33-.34-7.78Z"/><path class="cls-41" d="M210,113c2.94,15.21,14.78,13.4,24.45,12.53,7.61-1.47,7-14.86,7.78-25.32-.17-2.5-.61-5.79-.95-8.12-1.82-10.72-18.15-8.3-27.39-3.89C206.33,91.9,207.71,101.49,210,113Z"/><path class="cls-42" d="M242.1,112.72c.34,0,.61-2.67.61-6s-.27-6-.61-6-.6,2.67-.6,6S241.77,112.72,242.1,112.72Z"/><path class="cls-43" d="M241.07,107.54h-11.5"/><path class="cls-44" d="M198.82,165.87c13.47,6.83,31.19-2.08,35.85-13.31,4.75-11.41.78-25.15-2.94-31.89-1.64-2.94-5.09-11.4-.69-14.86,3-2.42,9.59-4.84,10.2-9.42.69-4.84-.43-6.74-2.42-9.07-6.14-7.18-21.95-4.15-29.55,4.4-6.05,6.83-12.36,18.06-16.16,27.05-6.22,14.61-5.44,25.93-4.92,30.51C189.05,155.93,190.69,161.81,198.82,165.87Z"/><path class="cls-45" d="M189,132.08c.61,0-3.28,17.2,6.31,27,6.66,6.83,17.2,7.35,25.32,6.74a26.85,26.85,0,0,1-14,2.34c-1.3-.18-7.43-.78-12.1-4.58C182.92,154.29,188.62,133.55,189,132.08Z"/></g></g></svg>