<svg xmlns="http://www.w3.org/2000/svg" xmlns:xlink="http://www.w3.org/1999/xlink" viewBox="0 0 1115.76 905.79"><defs><style>.cls-1{fill:#02a4d3;}.cls-2{fill:#015f7f;}.cls-3{fill:#f89c53;}.cls-4{fill:#465477;}.cls-5{fill:#f26f6f;}.cls-6{fill:#fab074;}.cls-7{fill:#544a89;}.cls-8{fill:#453c73;}.cls-9{fill:#403a65;opacity:0.4;}.cls-14,.cls-15,.cls-9{isolation:isolate;}.cls-10{fill:#4b4c61;}.cls-11,.cls-14,.cls-15{fill:#fff;}.cls-12{fill:#8fdd66;}.cls-13,.cls-23,.cls-24,.cls-31,.cls-32,.cls-34,.cls-35{fill:none;stroke-linecap:round;stroke-miterlimit:10;}.cls-13,.cls-34,.cls-35{stroke:#fff;}.cls-13{stroke-width:12.85px;}.cls-14{opacity:0.3;}.cls-15{opacity:0.55;}.cls-16{fill:#a0c8ea;}.cls-17{fill:#bad7f0;}.cls-18{fill:#6e82a8;}.cls-19{fill:#65779a;}.cls-20{fill:#3abd9d;}.cls-21{fill:#ece9e7;}.cls-22{fill:#f6ca65;}.cls-23{stroke:#f26f6f;}.cls-23,.cls-24{stroke-width:6.12px;}.cls-24{stroke:#f28282;}.cls-25{fill:#ff9d9d;}.cls-26{fill:#fbad83;}.cls-27{fill:#f071a9;}.cls-28{fill:#737e9a;}.cls-29{fill:#9abde2;}.cls-30{fill:#d36396;}.cls-31{stroke:#9764a7;}.cls-31,.cls-32{stroke-width:0.53px;}.cls-32{stroke:#f8bbd6;}.cls-33{fill:#fcc197;}.cls-34{stroke-width:1.02px;}.cls-35{stroke-width:1.53px;}.cls-36{fill:url(#linear-gradient);}.cls-37{fill:#633b2c;}.cls-38{fill:url(#linear-gradient-2);}.cls-39{fill:url(#linear-gradient-3);}</style><linearGradient id="linear-gradient" x1="238.91" y1="725.16" x2="238.91" y2="529.27" gradientTransform="matrix(1, 0, 0, -1, 0, 913)" gradientUnits="userSpaceOnUse"><stop offset="0" stop-color="#cf8b4b"/><stop offset="1" stop-color="#703952"/></linearGradient><linearGradient id="linear-gradient-2" x1="10.24" y1="892.84" x2="90.06" y2="846.76" gradientUnits="userSpaceOnUse"><stop offset="0" stop-color="#00659c"/><stop offset="0.57" stop-color="#f1fafe"/><stop offset="1" stop-color="#5f84b2"/></linearGradient><linearGradient id="linear-gradient-3" x1="-18.95" y1="744.37" x2="148.4" y2="647.77" xlink:href="#linear-gradient-2"/></defs><g id="Layer_2" data-name="Layer 2"><g id="Layer_1-2" data-name="Layer 1"><path class="cls-1" d="M0,904.36H1092.28L989.21,871.73c1.19-2,2.39-4,3.58-6.17,8.36-22.89,5.37-37,1.59-45.58-14.92-33.43-55.71-51.34-145.45-65.87-6.57-1-47.56-13.93-63.67-53.13-10.55-25.48-4.58-51-.4-66.27,14.33-54.13,46.36-58.71,63.47-103.29,14.13-36.81,13.53-89.15-14.13-128.16-34.62-48.95-100.28-60.89-148.63-51.14-47.36,9.55-80,41.59-96.31,61.09a286.2,286.2,0,0,0-52.92-79.8c-66.66-71-168.74-104.67-261.46-91.94C171.21,255.8,106.94,324.26,74.71,358.69A460.12,460.12,0,0,0,0,466.11Z"/><path class="cls-2" d="M176.79,859.19c8.15,16.91,22.48,25.87,28.65,29.85a95.58,95.58,0,0,0,38.8,13.33,82.6,82.6,0,0,0,10.54.6c106.46,0,158.19,1.59,196.59,1.59,89.54,0,232-.4,419.84-.4,25.87-13.93,135.51-80.2,178.29-224.28,3-9.75,58.1-208.76-41.59-324.38-6.17-7.16-68.44-77.61-133.91-61.09-69,17.31-78.4,116.22-162.56,136.12-35.82,8.56-65.87-1.79-76-5.38-83-29.45-83.77-118-156.8-142.29-37.8-12.53-87.35-2-115.6,34.23-39.6,50.55-32.64,137.12,2.38,190.25,21.1,31.84,43.18,40.4,55.52,81,4.38,14.33,13.13,45-.4,77.81-19.1,46-67.25,61.1-74.81,62.29-89.15,14.33-158.79,35.82-170.53,77.22C165.84,836.7,176.79,859.19,176.79,859.19Z"/><path class="cls-3" d="M800.58,825.55c22.09-3.18,28.85-14.72,53.12-13.93,19.7.6,23.29,8.56,46.76,13.93,12.74,3,51.74,11.94,73.23-5.37,25.27-20.69,25.86-63.68,7.36-94.53-22.48-37-55.91-54.32-67.26-89.35C909,621.57,912,616,911,594.51,907.63,519.29,872,436.7,845,437.89c-10,.4-16.71,11.94-26.07,28.06C806,487.84,806,503.56,798.19,546.55c-6.37,34.43-9.35,51.74-16.52,70.05-10.34,26.86-18.1,31.24-32.83,58.51-22.08,40.39-46.76,85.57-29.84,117C732.53,817.2,771.93,829.54,800.58,825.55Z"/><path class="cls-4" d="M879.77,904.16S846,828.74,852.51,756.1c6.57-72.83,14.33-58.11,4-122.59s-4.77-112.63-4.77-112.63S828.83,609,843.36,660s-22.09,71.44-19.5,150.65-.2,93.53-.2,93.53Z"/><path class="cls-4" d="M855.1,733.42l72.82-20.3L852.51,756.7Z"/><path class="cls-4" d="M848.13,702.17l-54.72-32.64,54.72,10.35v22.29Z"/><path class="cls-5" d="M1021.84,794.51a93.93,93.93,0,1,0-93.92-93.93A93.92,93.92,0,0,0,1021.84,794.51Z"/><path class="cls-4" d="M1024.23,728.24l73.22-20.3-75.61,43.58Z"/><path class="cls-4" d="M1021.84,700.58l-54.92-32.64,54.92,20.9v11.74Z"/><path class="cls-4" d="M1023.63,648.44l-17.51,255.72h31.44Z"/><path class="cls-6" d="M221.36,868.14l-2,11.35,32,10.54,2,1a2.37,2.37,0,0,1-1.19,4.38l-30.25,2c-4.77.39-19.7.79-23.28-1.6-4-2.58-3.18-2.18-3.78-5.77l1.39-7.56,1.8-15.32Z"/><path class="cls-7" d="M196.48,879.09s-5.57,19.1,4.18,22.88c8.56,3.19,31.44,2.19,49.55,1.6,5.77-.2,16.11-1.2,14.92-6-1.39-5.38-27.86-12.14-27.86-12.14,1.2.39,5.38,1.79,6.77,2.18,3.38,1.2-.6,2.79-5.17,3C227.13,891.23,194.1,892,196.48,879.09Z"/><path class="cls-8" d="M269.9,475.5s5,72.64-14.92,199.21l-35,200.2-22.88-1s-2.19-156.62,12.14-206.38c-1.4-35.22-12.74-64.28-18.91-95.52-7-7.36-10.74-16.92-12.93-25.07-4.58-15.73-3-46.57,6-59.51C197.88,465.75,210,464.76,269.9,475.5Z"/><path class="cls-9" d="M178.38,498.79s12.14,19.3,24.87,22.28c13.53,3.39,29.05,149.46,29.05,149.46l10.35,61.09s-9.16-61.29-21.89-89.35c-5-11.14-18.31-44.38-29.25-67.86-4.78-6.37-9-9.75-12.14-20.3C173,532.62,176.58,515.5,178.38,498.79Z"/><path class="cls-6" d="M292.19,869.53l2.39,11.75,31.83,10.35,2,1a2.37,2.37,0,0,1-1.19,4.38L297,899c-4.78.4-19.7.8-23.28-1.59-4-2.59-3.19-2.19-3.79-5.77l1.4-7.57-.8-15.72Z"/><path class="cls-7" d="M271.1,880.28s-5.17,19.51,4.58,23.29c8.55,3.18,31.43,2.18,49.54,1.59,5.77-.2,16.12-1.2,14.92-6-1.39-5.38-27.85-12.14-27.85-12.14,1.39.4,5.37,1.79,6.76,2.19,3.39,1.19-.59,2.78-5.17,3C302.14,892.82,271.7,893,271.1,880.28Z"/><path class="cls-10" d="M762.77,904.36H368a32.44,32.44,0,0,1-32.43-32.44V138.78A32.43,32.43,0,0,1,368,106.35H762.77a32.44,32.44,0,0,1,32.44,32.43V871.92A32.71,32.71,0,0,1,762.77,904.36Z"/><path class="cls-11" d="M746.06,159.28H384.52V532.22H746.06Z"/><path class="cls-12" d="M565.59,500.58A110.65,110.65,0,1,0,455,389.93,110.64,110.64,0,0,0,565.59,500.58Z"/><path class="cls-13" d="M519.82,396.3l43.58,28.26,47.75-77.42"/><path class="cls-14" d="M335.17,748.14V138.78a32.43,32.43,0,0,1,32.43-32.43H707.86Z"/><path class="cls-15" d="M745.66,569.83H384.52v54.93H745.66Z"/><path class="cls-7" d="M288.41,493.41s-8.56-11.94-48-15.52a189.87,189.87,0,0,1-26.07-4.58,47.45,47.45,0,0,0-13.33,9.16c-3.58,3.58-12.14,11.74-14.33,30.65-2.38,21.29,2.59,33.63,3.78,38,3,10.35,10.75,17.52,16.92,25.28,18.9,52.73,22.08,79.2,24.87,89.15,4.38,57.32,38.4,211,38.4,211h22.88s-6.16-196.62-6.16-210.75c0-31-4.38-86.37-3-125.37C288,513.12,288.41,498.79,288.41,493.41Z"/><path class="cls-15" d="M745.66,642.07H384.52V697H745.66Z"/><path class="cls-15" d="M745.66,714.51H384.52v54.93H745.66Z"/><path class="cls-16" d="M91.82,615.21H5.67V699H91.82Z"/><path class="cls-17" d="M57.8,637.89l-5.58,55.33H3.28V700H72.72v-8.75h19.1v-9H64.16l4-44.38Z"/><path class="cls-18" d="M96.79,699H7.65v70H96.79Z"/><path class="cls-19" d="M14.42,699v40.59h36l-3,31.25H56l4.17-39.41H19V699Z"/><path class="cls-20" d="M745.66,796.3h-118v51.15h118Z"/><path class="cls-1" d="M617.12,379.78H381.93a25.3,25.3,0,0,1-25.27-25.27v-125a25.3,25.3,0,0,1,25.27-25.27h235a25.3,25.3,0,0,1,25.27,25.27v125A25,25,0,0,1,617.12,379.78Z"/><path class="cls-21" d="M535.94,282.47H376.76v29.85H535.94Z"/><path class="cls-21" d="M642.39,241.07H356.26v29.85H642.39Z"/><path class="cls-22" d="M623.49,796.3h-118v51.15h118Z"/><path class="cls-5" d="M500.92,796.3h-118v51.15h118Z"/><path class="cls-23" d="M482,83.66c-.2-44.38,35.81-80.4,80.18-80.6s80.39,35.82,80.59,80.2"/><path class="cls-24" d="M516.44,85.45a47.66,47.66,0,1,1,95.31-.2"/><path class="cls-25" d="M545.69,87.24a16.72,16.72,0,1,1,33.43,0Z"/><path class="cls-26" d="M385.31,242.27c-2.38-2.19-7.76,4.77-10.74,5H373c-.4,0-1.6-1.19-2.79-1.19a10.61,10.61,0,0,0-2.19.59c-1,0-2.19-1.19-3.38-1.19-.8,0-2.19,1.19-3,1.19-1,.2-2.79-.79-4.18-.39-2,.39-2.39,1.19-4.18,2.78-7,5.77-6.77,14.73-9.55,18.11-6.57,8.76-29.06,20.5-51.54,36-10.55,7.17-44,26.07-44,26.07l-13.93,8.36s-31-60.1-38.4-12.54c0,0,2,31.64,31.83,61.3,13.14,6.56,39.6-15.52,60.09-35.82l.2.2,3-3.19c14.12-14.33,24.67-26.86,24.67-26.86l-.2-.2c1.59-1.79,23.28-27.27,29-33.44,4.38-4.57,10.35-8.36,14.33-9.35,2.39-.6,7.56-3.58,12.93-6.57,3.78-2.19,5.57-5.77,7.17-8.36,1.59-2.38-1.6-2.38-4.38-1.39-2.19.8-7.76,3.78-8.16,3.58a19,19,0,0,1,2.79-3,67.36,67.36,0,0,0,5.37-5.77c2.58-2.79,3.78-4.78,5.77-6.57C381.93,248.63,387.3,244.06,385.31,242.27Z"/><path class="cls-27" d="M304.33,376c1.59,11.54,1.19,18.31-8.36,29.06-5.37,6-3.18,19.3-4.38,28.85-1.79,15.72-3,25.87-2,40,.2,1.79.4,26.07-1.59,31.44-3.58,9.95-11.94,9.16-24.87,9.76-5.77.19-12.14.39-19.5.19-51.93-.79-66.46-12.73-66.46-12.73s1.79-10.95,9.16-24.48c8.15-14.73,14.12-30.65,14.52-41.39,2.79-65.48,7.56-102.89,18.7-117.22C230.11,304,245.63,302,245.63,302s30.05-3.78,51.14,13.13c13.73,10.95,17.71,16.32,17.71,16.32l-18.71,34,10,2C305.92,367.44,303.53,369.43,304.33,376Z"/><path class="cls-26" d="M314.48,331.42l53.12,48.36,71.24-1.19s8.35-5.18,12.93-6.17A21.7,21.7,0,0,1,464.5,374c.2,5-8.15,4.38-8.15,4.38l7.36.59,17.31.8-8.75,5.57s-10.95,7.37-16.12,7.76c-3.58.4-16.72-2.19-16.72-2.19l-71,16.13a11.22,11.22,0,0,1-8.36-1.4L296,365.45Z"/><path class="cls-28" d="M67.15,904.16A15.12,15.12,0,1,0,52,889,15.12,15.12,0,0,0,67.15,904.16Z"/><path class="cls-29" d="M67.15,898.39A9.35,9.35,0,1,0,57.8,889,9.35,9.35,0,0,0,67.15,898.39Z"/><path class="cls-30" d="M297.17,407.44c-5.38,5.77-5,19.5-5.58,28.86-.79,15.52-2,31-2,31-.39,13.54-.19,31.65-2,46.37-10.74,1-24.47,1.59-24.47,1.59v.2c0-3.38,7.16-26.86,9.55-71,2.39-45.18,23.28-78.81,23.28-78.81l9.95,5.77s-3.38,2.19-1.59,8.36C307.31,389.93,306.72,396.89,297.17,407.44Z"/><path class="cls-31" d="M177.78,507s21.89,15.72,87.15,12.13L270.7,574l13.93,115.82L290,875.11"/><path class="cls-30" d="M188.53,329s1.78,52.34,41.58,53.74c68.05,2.38,58.5-74.63,83.37-52.74,0,0-7-8.36-23.87-19.9,0,0-7.76,22.29-25.28,30.65C251.8,346.75,206.43,351.52,188.53,329Z"/><path class="cls-32" d="M293.78,319.48A77.21,77.21,0,0,1,311.89,333L296,363.46"/><path class="cls-31" d="M195.89,524.26l8.75,26.67,9.55,4.77,12.14-4.77-1.59-24.08Z"/><path class="cls-31" d="M179.57,522.47l4-.2.6,20.9-4.78,2.18L177.18,540l-.79-17.91Z"/><path class="cls-33" d="M228.12,256.2c6.76,35,34,30.84,56.31,28.85,17.51-3.38,16.12-34.23,17.91-58.31-.4-5.77-1.39-13.33-2.19-18.7-4.18-24.68-41.79-19.11-63.08-9C219.76,207.64,223,229.73,228.12,256.2Z"/><path class="cls-34" d="M302.14,255.6c.77,0,1.39-6.15,1.39-13.73s-.62-13.73-1.39-13.73-1.39,6.15-1.39,13.73S301.37,255.6,302.14,255.6Z"/><path class="cls-35" d="M299.75,243.66H273.29"/><path class="cls-36" d="M202.45,378c31,15.72,71.83-4.78,82.58-30.65,10.94-26.27,1.79-57.91-6.77-73.43-3.78-6.77-11.74-26.27-1.59-34.23,7-5.57,22.09-11.15,23.48-21.69,1.59-11.15-1-15.52-5.57-20.9-14.13-16.52-50.54-9.55-68,10.15-13.93,15.72-28.45,41.59-37.21,62.29C175,303.16,176.79,329.23,178,339.78,180,355.1,183.75,368.64,202.45,378Z"/><path class="cls-37" d="M179.77,300.18c1.39,0-7.56,39.6,14.52,62.09,15.33,15.72,39.6,16.91,58.3,15.52a61.73,61.73,0,0,1-32.23,5.37c-3-.39-17.11-1.79-27.86-10.54C165.84,351.32,179,303.56,179.77,300.18Z"/><path class="cls-38" d="M97.79,865.16H0v10H97.79a5,5,0,1,0,0-10Z"/><path class="cls-39" d="M141.77,636.5a10.47,10.47,0,0,0-8.56-4.38H0V777.2H96.79a11,11,0,0,0,10.55-8l36.21-123.19A10.33,10.33,0,0,0,141.77,636.5ZM53,767.25H7.65V734H56Zm3.78-43.19H7.65V687.44H60ZM7.65,677.5V641.87H64.16L61,677.5Zm90.34,89a1.35,1.35,0,0,1-1.2.8h-34l3-33.24h41.59Zm12.34-42.39H66.75l3.18-36.62h51.14ZM134,643.27l-10.14,34.42H70.73l3.18-35.62h59.3a1,1,0,0,1,.79.4A1,1,0,0,1,134,643.27Z"/></g></g></svg>