<svg xmlns="http://www.w3.org/2000/svg" viewBox="0 0 39.23 34.77"><defs><style>.cls-1{fill:#005b97;}.cls-2{fill:#2daee5;fill-rule:evenodd;}</style></defs><g id="Layer_2" data-name="Layer 2"><g id="Layer_1-2" data-name="Layer 1"><path class="cls-1" d="M5.63,34.77a1.85,1.85,0,0,1-1.31-.56L.56,30.45a1.82,1.82,0,0,1,0-2.63,1.82,1.82,0,0,1,2.63,0l2.44,2.45,6.19-6.2a1.86,1.86,0,1,1,2.63,2.63L6.94,34.21A1.85,1.85,0,0,1,5.63,34.77Z"/><path class="cls-2" d="M0,17.37V5.88A5.87,5.87,0,0,1,5.87,0H33.3a5.88,5.88,0,0,1,5.88,5.88V23.53l0,0v9a2,2,0,0,1-2,2,2,2,0,0,1-1.39-.57l-4.49-4.5H21.51A14.69,14.69,0,0,0,6.85,15.67,14.51,14.51,0,0,0,0,17.37ZM7.83,7.84a2,2,0,1,0,0,3.91H25.46a2,2,0,1,0,0-3.91Z"/></g></g></svg>