<svg xmlns="http://www.w3.org/2000/svg" viewBox="0 0 40.3 28.21"><defs><style>.cls-1{fill:#2daee5;fill-rule:evenodd;}.cls-2{fill:#005b97;}</style></defs><g id="Layer_2" data-name="Layer 2"><g id="Layer_1-2" data-name="Layer 1"><path class="cls-1" d="M17.13,0H37.28a3,3,0,0,1,3,3V9.07a3,3,0,0,1-3,3H17.13a3,3,0,0,1-3-3V3A3,3,0,0,1,17.13,0Zm0,16.12H37.28a3,3,0,0,1,3,3v6.05a3,3,0,0,1-3,3H17.13a3,3,0,0,1-3-3V19.14A3,3,0,0,1,17.13,16.12Z"/><path class="cls-2" d="M8.06,0H2A2,2,0,0,0,0,2V26.19a2,2,0,0,0,2,2h6a2,2,0,0,0,2-2V2A2,2,0,0,0,8.06,0Z"/></g></g></svg>