<svg xmlns="http://www.w3.org/2000/svg" xmlns:xlink="http://www.w3.org/1999/xlink" viewBox="0 0 35.63 38.13"><defs><style>.cls-1{fill:none;}.cls-2{clip-path:url(#clip-path);}.cls-3{fill:#cdcccc;}.cls-4{opacity:0.3;isolation:isolate;}.cls-5{fill:#005b97;}.cls-6{fill:#2daee5;}</style><clipPath id="clip-path" transform="translate(-5.51 -4.96)"><rect class="cls-1" width="47.01" height="47.01"/></clipPath></defs><g id="Layer_2" data-name="Layer 2"><g id="Layer_1-2" data-name="Layer 1"><g class="cls-2"><path class="cls-3" d="M25.47,37.11v2.07h2a3.91,3.91,0,0,1,3.92,3.92H15.67a3.92,3.92,0,0,1,3.92-3.92h2V37.11a17.59,17.59,0,0,1-10.2-4.75L9.28,34.62A2,2,0,1,1,6.39,32l3.5-3.84a2,2,0,0,1,3,.09A13.71,13.71,0,1,0,31.58,8.5a2,2,0,1,1,2.31-3.16,17.63,17.63,0,0,1-8.42,31.77Z" transform="translate(-5.51 -4.96)"/><path class="cls-4" d="M23.51,31.34A11.75,11.75,0,1,0,11.75,19.59,11.75,11.75,0,0,0,23.51,31.34Z" transform="translate(-5.51 -4.96)"/><path class="cls-5" d="M25.1,37.11v2.07h2A3.92,3.92,0,0,1,31,43.1H15.31a3.91,3.91,0,0,1,3.91-3.92h2V37.11A17.62,17.62,0,0,1,11,32.36L8.92,34.62A2,2,0,1,1,6,32l3.51-3.84a2,2,0,0,1,3,.09A13.72,13.72,0,1,0,31.22,8.5a2,2,0,1,1,2.31-3.16A17.63,17.63,0,0,1,25.1,37.11Z" transform="translate(-5.51 -4.96)"/><path class="cls-6" d="M23.14,31.34A11.75,11.75,0,1,0,11.39,19.59,11.76,11.76,0,0,0,23.14,31.34Z" transform="translate(-5.51 -4.96)"/></g></g></g></svg>