<svg xmlns="http://www.w3.org/2000/svg" viewBox="0 0 54.27 42.27"><defs><style>.cls-1{fill:#005b97;}.cls-2{fill:#2daee5;}</style></defs><g id="Layer_2" data-name="Layer 2"><g id="Layer_1-2" data-name="Layer 1"><path class="cls-1" d="M36.14,16.12A8.06,8.06,0,1,1,44.2,8.06,8.06,8.06,0,0,1,36.14,16.12Z"/><path class="cls-1" d="M26,26c2-6,4.48-6,14-6s13.72,4.81,14.31,14.7a1.39,1.39,0,0,1-1.52,1.61H38.46C37,32,32.46,26,26,26Z"/><path class="cls-2" d="M18.14,22.12a8.06,8.06,0,1,1,8.06-8.06A8.06,8.06,0,0,1,18.14,22.12Z"/><path class="cls-2" d="M0,40.66C.78,31,8.59,26.15,18.1,26.15s17.58,4.62,18.17,14.51a1.39,1.39,0,0,1-1.52,1.61H1.47A2.24,2.24,0,0,1,0,40.66Z"/></g></g></svg>