<svg xmlns="http://www.w3.org/2000/svg" viewBox="0 0 33.3 33.3"><defs><style>.cls-1{fill:#2daee5;fill-rule:evenodd;}.cls-2{fill:#005b97;}</style></defs><g id="Layer_2" data-name="Layer 2"><g id="Layer_1-2" data-name="Layer 1"><path class="cls-1" d="M18,2a10.93,10.93,0,0,0-.4,2.94A10.77,10.77,0,0,0,28.4,15.67a11,11,0,0,0,2.94-.4V27.42a5.88,5.88,0,0,1-5.88,5.88H5.87A5.87,5.87,0,0,1,0,27.42V7.84A5.87,5.87,0,0,1,5.87,2Z"/><path class="cls-2" d="M28.4,9.79A4.9,4.9,0,1,0,23.5,4.9,4.9,4.9,0,0,0,28.4,9.79Z"/></g></g></svg>